<?xml version="1.0" standalone="no"?>
<!DOCTYPE svg PUBLIC "-//W3C//DTD SVG 20010904//EN"
 "http://www.w3.org/TR/2001/REC-SVG-20010904/DTD/svg10.dtd">
<svg version="1.0" xmlns="http://www.w3.org/2000/svg"
 width="292.000000pt" height="292.000000pt" viewBox="0 0 292.000000 292.000000"
 preserveAspectRatio="xMidYMid meet">
<metadata>
Created by potrace 1.11, written by Peter Selinger 2001-2013
</metadata>
<g transform="translate(0.000000,292.000000) scale(0.100000,-0.100000)"
fill="#000000" stroke="none">
<path d="M10 1460 l0 -1460 1450 0 1450 0 0 1460 0 1460 -1450 0 -1450 0 0
-1460z m2217 1051 l62 -6 -150 -197 -150 -198 -77 51 c-42 29 -81 55 -86 60
-4 4 42 73 103 153 l112 146 62 -1 c34 -1 90 -4 124 -8z m-629 -356 c75 -24
239 -120 271 -159 8 -9 -88 -145 -351 -500 -276 -374 -357 -490 -347 -497 36
-23 103 -34 204 -34 127 1 185 19 288 89 73 50 153 155 181 237 23 65 32 229
17 283 -10 39 -9 40 67 144 l76 106 32 -70 c105 -230 79 -513 -65 -708 -121
-164 -278 -265 -467 -302 -163 -31 -301 -12 -453 62 -83 40 -109 60 -191 143
-108 108 -154 188 -190 327 -26 100 -29 271 -5 359 76 285 303 490 603 545 86
16 239 4 330 -25z m-699 -1436 l25 -15 -63 -82 -62 -82 866 0 865 0 0 -102 0
-101 -257 6 c-141 4 -620 7 -1065 7 -529 0 -808 3 -808 10 0 5 79 113 176 240
l175 230 62 -48 c34 -26 73 -54 86 -63z"/>
<path d="M1219 1936 c-81 -23 -167 -76 -229 -142 -132 -142 -168 -318 -104
-511 16 -50 73 -153 84 -153 13 0 588 750 593 772 8 38 -240 62 -344 34z"/>
</g>
</svg>
